<svg width="212" height="212" viewBox="0 0 212 212" fill="none" xmlns="http://www.w3.org/2000/svg">
<path d="M105.226 0C163.768 0 211.226 47.4578 211.226 106C211.226 164.542 163.768 212 105.226 212C58.5164 212 18.8856 181.793 4.75684 139.875C3.1694 135.165 5.70042 130.06 10.4102 128.472C15.1202 126.884 20.2257 129.415 21.8135 134.125C33.5493 168.945 66.4735 194 105.226 194C153.827 194 193.226 154.601 193.226 106C193.226 57.3989 153.827 18 105.226 18C71.4809 18.0002 42.1558 36.9987 27.3916 64.8994L59.3418 45.082C62.3924 43.1898 66.3997 44.1291 68.292 47.1797C70.1841 50.2303 69.2449 54.2376 66.1943 56.1299L4.45508 94.4277L0.0117188 21.9102C-0.207793 18.3272 2.51875 15.2443 6.10156 15.0244C9.68457 14.8049 12.7676 17.5313 12.9873 21.1143L14.7979 50.6709C33.43 20.2824 66.9512 0.00022102 105.226 0Z" fill="white"/>
</svg>
