<?xml version="1.0" encoding="UTF-8"?>
<svg id="_レイヤー_1" data-name="レイヤー_1" xmlns="http://www.w3.org/2000/svg" version="1.1" viewBox="0 0 3000 1687.5">
  <!-- Generator: Adobe Illustrator 30.5.1, SVG Export Plug-In . SVG Version: 2.1.4 Build 3)  -->
  <defs>
    <style>
      .st0 {
        fill: #b5e812;
      }

      .st0, .st1, .st2, .st3, .st4 {
        fill-rule: evenodd;
      }

      .st1 {
        fill: #d1220a;
      }

      .st2 {
        fill: #202f97;
      }

      .st3 {
        fill: #19c352;
      }

      .st4 {
        fill: #3658f7;
      }
    </style>
  </defs>
  <path class="st1" d="M1174.01,1480.94c21.38,22.3,45.71,43.68,72.97,64.14,124.79,94.94,277.41,142.41,457.86,142.41H0v-229.17h1153.61l9.95,11.38,10.45,11.23h0Z"/>
  <path class="st1" d="M1676.74,229.58c9.29-.28,18.66-.42,28.1-.42h138.78c-25.95-29.8-56.99-58.08-93.14-84.85C1625.69,48.1,1473.92,0,1295.16,0h1704.84v715.28c0-132.92-64.08-246.85-192.25-341.8-124.79-96.21-276.57-144.31-455.33-144.31h-647.58l-28.1.42-9.16.38-18.51.84-10.78.76-16.47,1.26-11.3,1.14-15.52,1.69-11.46,1.51-14.94,2.13-11.45,1.87-14.53,2.58-18.45,3.63h-.06s-.08.03-.08.03l-22.72,5.24-2.25.54-13.84,3.59c4.59-1.24,9.2-2.44,13.84-3.59l.85-.22,1.4-.32,9.72-2.35,13-2.89.07-.02h.07s13.14-2.7,13.14-2.7l5.31-.94,6.09-1.2,8.45-1.38,6.9-1.22,4.54-.65,5.11-.84,9.83-1.29,7.73-1.1,3.72-.41,4.13-.54,11.39-1.15,8.44-.92,2.86-.22,3.13-.32,13.34-.95,8.83-.68,1.95-.09,2.11-.15,16.4-.69,8.17-.37h1Z"/>
  <path class="st0" d="M647.58,486.11c-178.76,0-331.38,48.1-457.86,144.31C63.24,724.1,0,838.03,0,972.22v-486.11h647.58Z"/>
  <path class="st3" d="M647.58,0c-178.76,0-331.38,48.1-457.86,144.31C63.24,237.99,0,351.92,0,486.11V0h647.58Z"/>
  <path class="st2" d="M3000,1687.5h-647.58c177.07,0,328.85-47.47,455.33-142.41,128.17-93.68,192.25-208.24,192.25-343.7v486.11h0Z"/>
  <path class="st4" d="M3000,715.28v486.11c0-132.92-64.08-246.85-192.25-341.8-124.79-96.21-276.57-144.31-455.33-144.31h647.58Z"/>
  <path class="st4" d="M1153.61,1458.33H0v-486.11c0-134.19,63.24-248.12,189.72-341.8,126.48-96.21,279.1-144.31,457.86-144.31H0c0-134.19,63.24-248.12,189.72-341.8C316.2,48.1,468.82,0,647.58,0h647.58c178.76,0,330.53,48.1,455.33,144.31,36.14,26.77,67.19,55.06,93.14,84.85h-138.78c-178.76,0-331.38,48.1-457.86,144.31-126.48,93.68-189.72,207.61-189.72,341.8v486.11c0,95.62,32.11,181.28,96.35,256.94h0Z"/>
  <path class="st3" d="M3000,1201.39c0,135.45-64.08,250.02-192.25,343.7-126.48,94.94-278.26,142.41-455.33,142.41h-647.58c-180.44,0-333.06-47.47-457.86-142.41-36.35-27.29-67.48-56.2-93.37-86.75h789.12v-486.11h-647.58c177.07,0,328.85-47.47,455.33-142.41,128.17-93.68,192.25-208.24,192.25-343.7,0-95.44-33.04-181.08-99.12-256.94h508.8c178.76,0,330.54,48.1,455.33,144.31,128.17,94.94,192.25,208.88,192.25,341.8h-647.58c178.76,0,330.54,48.1,455.33,144.31,128.17,94.94,192.25,208.88,192.25,341.8h0Z"/>
  <path class="st0" d="M1843.62,229.17c47.89,54.98,78.43,115.11,91.51,180.39l1.41,6.81c.9,5.7,1.81,11.39,2.71,17.09l1.21,10.85c1.55,13.71,2.27,27.65,2.27,41.8,0,135.45-64.08,250.02-192.25,343.7-122.52,91.97-268.78,139.4-438.8,142.28l-16.53.14h647.58v486.11h-789.12c-64.24-75.67-96.35-161.32-96.35-256.94v-486.11c0-109.03,41.75-204.68,125.25-286.97l9.82-9.44c3.4-3.11,6.79-6.21,10.19-9.32l10.56-9.2c3.64-3.03,7.29-6.05,10.93-9.08l11.3-8.96,11.67-8.84c51.38-39.08,107.06-70.22,167.09-93.44l13.93-5.21,14.08-4.93,13.31-4.35c76.57-24.26,159.72-36.38,249.45-36.38h138.78Z"/>
</svg>